{"title":"Remember Me (2010) DVDRip XviD-MAX","uid":5608364,"size":1350501076,"categoryP":"video","categoryS":"movies","magnet":"?xt=urn:btih:8301f04917794049f909b6145b4d1435914939ba&amp;dn=Remember+Me+%282010%29+DVDRip+XviD-MAX&amp;tr=udp%3A%2F%2Ftracker.openbittorrent.com%3A80&amp;tr=udp%3A%2F%2Fopen.demonii.com%3A1337&amp;tr=udp%3A%2F%2Ftracker.coppersurfer.tk%3A6969&amp;tr=udp%3A%2F%2Fexodus.desync.com%3A6969","seeders":30,"leechers":0,"uploader":"extremezone","files":-1,"time":1275702956,"description":"Remember Me 2010 720p BluRay x264-MACHD  &lt;a href=&quot;\nhttp://thepiratebay.se/torrent/5607979/Remember_Me_2010_720p_BluRay_x264-MACHD&quot; rel=&quot;nofollow&quot; target=&quot;_NEW&quot;&gt;\nhttp://thepiratebay.se/torrent/5607979/Remember_Me_2010_720p_BluRay_x264-MACHD&lt;/a&gt;\n\nRemember Me (2010) DVDRip XviD-MAX \n\nFormat                           : AVI\nFormat/Info                      : Audio Video Interleave \nFormat profile                   : OpenDML\nFile size                        : 1.26 GiB \nDuration                         : 1h 52mn \nOverall bit rate                 : 1 603 Kbps\nWriting application              : VirtualDubMod 1.5.10.2 (build 2542/release)\nWriting library                  : VirtualDubMod build 2542/release\nOriginal source form             : MAX TORRENTZ\nCopyright                        : SIGISMUNT \n\nVideo\nID                               : 0\nFormat                           : MPEG-4 Visual\nFormat profile                   : AdvancedSimple@L5\nFormat settings, BVOP            : Yes\nFormat settings, QPel            : No \nFormat settings, GMC             : No warppoints\nFormat settings, Matrix          : Custom \nCodec ID                         : XVID\nCodec ID/Hint                    : XviD\nDuration                         : 1h 52mn\nBit rate                         : 1 213 Kbps\nWidth                            : 720 pixels\nHeight                           : 400 pixels\nDisplay aspect ratio             : 16:9\nFrame rate                       : 23.976 fps\nResolution                       : 24 bits\nColorimetry                      : 4:2:0\nScan type                        : Progressive\nBits/(Pixel*Frame)               : 0.176\nStream size                      : 975 MiB (76%)\nWriting library                  : XviD 1.2.1 (UTC 2008-12-04)\n\nAudio\nID                               : 1\nFormat                           : AC-3\nFormat/Info                      : Audio Coding 3\nCodec ID                         : 2000\nDuration                         : 1h 52mn\nBit rate mode                    : Constant\nBit rate                         : 384 Kbps\nChannel(s)                       : 6 channels\nChannel positions                : Front: L C R, Surround: L R, LFE\nSampling rate                    : 48.0 KHz\nStream size                      : 309 MiB (24%)\nAlignment                        : Aligned on interleaves\nInterleave, duration             : 64 ms (1.53 video frames)\nInterleave, preload duration     : 192 ms\n\nSource: 720p BluRay &lt;a href=&quot;\nhttp://www.imdb.com/title/tt1403981/&quot; rel=&quot;nofollow&quot; target=&quot;_NEW&quot;&gt;\nhttp://www.imdb.com/title/tt1403981/&lt;/a&gt;\n\nScreens: &lt;a href=&quot;\nhttp://www.postimg.com/image/16000/15629.jpg&quot; rel=&quot;nofollow&quot; target=&quot;_NEW&quot;&gt;\nhttp://www.postimg.com/image/16000/15629.jpg&lt;/a&gt; &lt;a href=&quot;\nhttp://www.postimg.com/image/16000/15630.jpg&quot; rel=&quot;nofollow&quot; target=&quot;_NEW&quot;&gt;\nhttp://www.postimg.com/image/16000/15630.jpg&lt;/a&gt; &lt;a href=&quot;\nhttp://www.postimg.com/image/16000/15631.jpg&quot; rel=&quot;nofollow&quot; target=&quot;_NEW&quot;&gt;\nhttp://www.postimg.com/image/16000/15631.jpg&lt;/a&gt; &lt;a href=&quot;\nhttp://www.postimg.com/image/16000/15632.jpg&quot; rel=&quot;nofollow&quot; target=&quot;_NEW&quot;&gt;\nhttp://www.postimg.com/image/16000/15632.jpg&lt;/a&gt; &lt;a href=&quot;\nhttp://www.postimg.com/image/16000/15633.jpg&quot; rel=&quot;nofollow&quot; target=&quot;_NEW&quot;&gt;\nhttp://www.postimg.com/image/16000/15633.jpg&lt;/a&gt; \n\nScreenCaps: &lt;a href=&quot;\nhttp://www.postimg.com/image/16000/15634.jpg&quot; rel=&quot;nofollow&quot; target=&quot;_NEW&quot;&gt;\nhttp://www.postimg.com/image/16000/15634.jpg&lt;/a&gt;\n\nRemember Me (2010) DVDRip XviD-MAX Torrent Free Download &lt;a href=&quot;\nhttp://thepiratebay.se/user/extremezone/0/7&quot; rel=&quot;nofollow&quot; target=&quot;_NEW&quot;&gt;\nhttp://thepiratebay.se/user/extremezone/0/7&lt;/a&gt;\n\nHow To Get Your Maxspeed (uTorrent)\n\nTorrent Client - Preferences - Bandwidth - Number of connections - Set aprox. 500 for each \nTorrent Client - Preferences - BiTorrent - Protocol Encryption - Forced\nBandwidth Allocation - High (Set download/upload limit - Unlimited)\nStop Other Active Torrents - Start downloading and wait for connections\nEnjoy and Seed for at least 1:1 ratio. Don't forget to say thanks/leave reviews.\nAlso please spread the link where you found this torrent to your friends.\nRecommended player for all our movies VLC PLAYER.","torrent":{"xt":"urn:btih:8301f04917794049f909b6145b4d1435914939ba","amp;dn":"Remember+Me+%282010%29+DVDRip+XviD-MAX","amp;tr":["udp%3A%2F%2Ftracker.openbittorrent.com%3A80","udp%3A%2F%2Fopen.demonii.com%3A1337","udp%3A%2F%2Ftracker.coppersurfer.tk%3A6969","udp%3A%2F%2Fexodus.desync.com%3A6969"],"infoHash":"8301f04917794049f909b6145b4d1435914939ba","infoHashBuffer":{"type":"Buffer","data":[131,1,240,73,23,121,64,73,249,9,182,20,91,77,20,53,145,73,57,186]},"announce":[],"urlList":[]}}